<svg xmlns="http://www.w3.org/2000/svg" xmlns:xlink="http://www.w3.org/1999/xlink" width="500" zoomAndPan="magnify" viewBox="0 0 375 374.999991" height="500" preserveAspectRatio="xMidYMid meet" version="1.0"><defs><clipPath id="8af13bf134"><path d="M 7 78 L 231 78 L 231 313.394531 L 7 313.394531 Z M 7 78 " clip-rule="nonzero"/></clipPath><clipPath id="2f0ea75cdd"><path d="M 72 78 L 295 78 L 295 313.394531 L 72 313.394531 Z M 72 78 " clip-rule="nonzero"/></clipPath><clipPath id="f1f870f4cb"><path d="M 136 78 L 360 78 L 360 313.394531 L 136 313.394531 Z M 136 78 " clip-rule="nonzero"/></clipPath></defs><g clip-path="url(#8af13bf134)"><path fill="#000000" d="M 40.003906 184.394531 C 61.003906 205.394531 76.003906 226.394531 91.003906 253.394531 C 160.996094 121.394531 245.992188 61.394531 227.992188 82.394531 C 170.996094 155.394531 132 229.394531 94.003906 313.394531 C 72.003906 273.394531 44.003906 220.394531 10.007812 209.394531 C 0.0078125 199.394531 24.007812 175.394531 40.003906 184.394531 Z M 40.003906 184.394531 " fill-opacity="1" fill-rule="nonzero"/></g><g clip-path="url(#2f0ea75cdd)"><path fill="#000000" d="M 104.394531 184.394531 C 125.390625 205.394531 140.390625 226.394531 155.390625 253.394531 C 225.386719 121.394531 310.378906 61.394531 292.382812 82.394531 C 235.386719 155.394531 196.386719 229.394531 158.390625 313.394531 C 136.390625 273.394531 108.394531 220.394531 74.394531 209.394531 C 64.398438 199.394531 88.394531 175.394531 104.394531 184.394531 Z M 104.394531 184.394531 " fill-opacity="1" fill-rule="nonzero"/></g><g clip-path="url(#f1f870f4cb)"><path fill="#000000" d="M 168.78125 184.394531 C 189.78125 205.394531 204.78125 226.394531 219.777344 253.394531 C 289.773438 121.394531 374.769531 61.394531 356.769531 82.394531 C 299.773438 155.394531 260.777344 229.394531 222.777344 313.394531 C 200.78125 273.394531 172.78125 220.394531 138.785156 209.394531 C 128.785156 199.394531 152.78125 175.394531 168.78125 184.394531 Z M 168.78125 184.394531 " fill-opacity="1" fill-rule="nonzero"/></g></svg>