<svg xmlns="http://www.w3.org/2000/svg" xmlns:xlink="http://www.w3.org/1999/xlink" width="500" zoomAndPan="magnify" viewBox="0 0 375 374.999991" height="500" preserveAspectRatio="xMidYMid meet" version="1.0"><defs><clipPath id="15bb9288b4"><path d="M 7 78 L 231 78 L 231 313.394531 L 7 313.394531 Z M 7 78 " clip-rule="nonzero"/></clipPath><clipPath id="94344e6cb3"><path d="M 72 78 L 296 78 L 296 313.394531 L 72 313.394531 Z M 72 78 " clip-rule="nonzero"/></clipPath><clipPath id="e8388cd405"><path d="M 136 78 L 360 78 L 360 313.394531 L 136 313.394531 Z M 136 78 " clip-rule="nonzero"/></clipPath></defs><g clip-path="url(#15bb9288b4)"><path fill="#ffffff" d="M 40.042969 184.496094 C 61.058594 205.515625 76.070312 226.53125 91.085938 253.554688 C 161.144531 121.445312 246.214844 61.394531 228.199219 82.410156 C 171.152344 155.472656 132.117188 229.535156 94.085938 313.605469 C 72.070312 273.570312 44.046875 220.527344 10.015625 209.515625 C 0.0078125 199.507812 24.027344 175.488281 40.042969 184.496094 Z M 40.042969 184.496094 " fill-opacity="1" fill-rule="nonzero"/></g><g clip-path="url(#94344e6cb3)"><path fill="#ffffff" d="M 104.429688 184.496094 C 125.449219 205.515625 140.460938 226.53125 155.472656 253.554688 C 225.53125 121.445312 310.601562 61.394531 292.585938 82.410156 C 235.539062 155.472656 196.507812 229.535156 158.476562 313.605469 C 136.457031 273.570312 108.433594 220.527344 74.40625 209.515625 C 64.398438 199.507812 88.417969 175.488281 104.429688 184.496094 Z M 104.429688 184.496094 " fill-opacity="1" fill-rule="nonzero"/></g><g clip-path="url(#e8388cd405)"><path fill="#ffffff" d="M 168.816406 184.496094 C 189.835938 205.515625 204.847656 226.53125 219.859375 253.554688 C 289.917969 121.445312 374.992188 61.394531 356.976562 82.410156 C 299.929688 155.472656 260.894531 229.535156 222.863281 313.605469 C 200.84375 273.570312 172.820312 220.527344 138.792969 209.515625 C 128.785156 199.507812 152.804688 175.488281 168.816406 184.496094 Z M 168.816406 184.496094 " fill-opacity="1" fill-rule="nonzero"/></g></svg>