<svg xmlns="http://www.w3.org/2000/svg" xmlns:xlink="http://www.w3.org/1999/xlink" width="380" zoomAndPan="magnify" viewBox="0 0 285 191.249993" height="255" preserveAspectRatio="xMidYMid meet" version="1.0"><defs><clipPath id="dcfac1733e"><path d="M 6 12 L 175 12 L 175 190.503906 L 6 190.503906 Z M 6 12 " clip-rule="nonzero"/></clipPath><clipPath id="cadf0e99dd"><path d="M 54 12 L 223 12 L 223 190.503906 L 54 190.503906 Z M 54 12 " clip-rule="nonzero"/></clipPath><clipPath id="49ad410d20"><path d="M 104 12 L 274 12 L 274 190.503906 L 104 190.503906 Z M 104 12 " clip-rule="nonzero"/></clipPath></defs><g clip-path="url(#dcfac1733e)"><path fill="#000000" d="M 30.808594 92.984375 C 46.6875 108.859375 58.03125 124.734375 69.375 145.144531 C 122.3125 45.359375 186.59375 0 172.980469 15.875 C 129.875 71.0625 100.382812 127 71.644531 190.503906 C 55.007812 160.265625 33.832031 120.199219 8.121094 111.882812 C 0.558594 104.324219 18.707031 86.179688 30.808594 92.984375 Z M 30.808594 92.984375 " fill-opacity="1" fill-rule="nonzero"/></g><g clip-path="url(#cadf0e99dd)"><path fill="#000000" d="M 78.808594 92.984375 C 94.691406 108.859375 106.035156 124.734375 117.378906 145.144531 C 170.316406 45.359375 234.597656 0 220.984375 15.875 C 177.878906 71.0625 148.386719 127 119.648438 190.503906 C 103.011719 160.265625 81.835938 120.199219 56.121094 111.882812 C 48.558594 104.324219 66.710938 86.179688 78.808594 92.984375 Z M 78.808594 92.984375 " fill-opacity="1" fill-rule="nonzero"/></g><g clip-path="url(#49ad410d20)"><path fill="#000000" d="M 129.210938 92.984375 C 145.089844 108.859375 156.433594 124.734375 167.777344 145.144531 C 220.714844 45.359375 284.996094 0 271.382812 15.875 C 228.277344 71.0625 198.785156 127 170.046875 190.503906 C 153.410156 160.265625 132.234375 120.199219 106.523438 111.882812 C 98.960938 104.324219 117.109375 86.179688 129.210938 92.984375 Z M 129.210938 92.984375 " fill-opacity="1" fill-rule="nonzero"/></g></svg>