<svg xmlns="http://www.w3.org/2000/svg" xmlns:xlink="http://www.w3.org/1999/xlink" width="380" zoomAndPan="magnify" viewBox="0 0 285 191.249993" height="255" preserveAspectRatio="xMidYMid meet" version="1.0"><defs><clipPath id="8b66a09d07"><path d="M 6 12 L 175 12 L 175 190.503906 L 6 190.503906 Z M 6 12 " clip-rule="nonzero"/></clipPath><clipPath id="17202db4e3"><path d="M 54 12 L 223 12 L 223 190.503906 L 54 190.503906 Z M 54 12 " clip-rule="nonzero"/></clipPath><clipPath id="d27f85d006"><path d="M 104 12 L 274 12 L 274 190.503906 L 104 190.503906 Z M 104 12 " clip-rule="nonzero"/></clipPath></defs><g clip-path="url(#8b66a09d07)"><path fill="#ffffff" d="M 30.796875 92.984375 C 46.671875 108.859375 58.011719 124.734375 69.351562 145.144531 C 122.265625 45.359375 186.523438 0 172.917969 15.875 C 129.828125 71.0625 100.34375 127 71.617188 190.503906 C 54.988281 160.265625 33.820312 120.199219 8.117188 111.882812 C 0.558594 104.324219 18.699219 86.179688 30.796875 92.984375 Z M 30.796875 92.984375 " fill-opacity="1" fill-rule="nonzero"/></g><g clip-path="url(#17202db4e3)"><path fill="#ffffff" d="M 78.796875 92.984375 C 94.675781 108.859375 106.011719 124.734375 117.351562 145.144531 C 170.269531 45.359375 234.527344 0 220.917969 15.875 C 177.828125 71.0625 148.347656 127 119.621094 190.503906 C 102.988281 160.265625 81.824219 120.199219 56.121094 111.882812 C 48.558594 104.324219 66.703125 86.179688 78.796875 92.984375 Z M 78.796875 92.984375 " fill-opacity="1" fill-rule="nonzero"/></g><g clip-path="url(#d27f85d006)"><path fill="#ffffff" d="M 129.199219 92.984375 C 145.074219 108.859375 156.414062 124.734375 167.753906 145.144531 C 220.671875 45.359375 284.925781 0 271.320312 15.875 C 228.230469 71.0625 198.746094 127 170.019531 190.503906 C 153.390625 160.265625 132.222656 120.199219 106.519531 111.882812 C 98.960938 104.324219 117.101562 86.179688 129.199219 92.984375 Z M 129.199219 92.984375 " fill-opacity="1" fill-rule="nonzero"/></g></svg>